<svg xmlns="http://www.w3.org/2000/svg" width="16" height="16" viewBox="0 0 24 24" fill="none" stroke="#CCCCCC" stroke-width="2" stroke-linecap="round" stroke-linejoin="round">
  <!-- Search circle -->
  <circle cx="11" cy="11" r="9"/>
  <!-- Search handle -->
  <path d="m17.66 17.66 4.5 4.5"/>
  <!-- Package icon -->
  <g transform="translate(11, 11) scale(0.5) translate(-12, -12)">
    <path d="M11 21.73a2 2 0 0 0 2 0l7-4A2 2 0 0 0 21 16V8a2 2 0 0 0-1-1.73l-7-4a2 2 0 0 0-2 0l-7 4A2 2 0 0 0 3 8v8a2 2 0 0 0 1 1.73z"/>
    <path d="M12 22V12"/>
    <polyline points="3.29 7 12 12 20.71 7"/>
    <path d="m7.5 4.27 9 5.15"/>
  </g>
</svg>